<?xml version="1.0" encoding="utf-8"?>
<!-- Generator: Adobe Illustrator 27.5.0, SVG Export Plug-In . SVG Version: 6.00 Build 0)  -->
<svg version="1.1" id="Layer_1" xmlns="http://www.w3.org/2000/svg" xmlns:xlink="http://www.w3.org/1999/xlink" x="0px" y="0px"
	 viewBox="0 0 460.8 345.6" style="enable-background:new 0 0 460.8 345.6;" xml:space="preserve">
<style type="text/css">
	.st0{fill:#FFFFFF;}
	.st1{clip-path:url(#SVGID_00000080192135254927475700000017159658551703395260_);}
	.st2{fill:#FF0000;stroke:#FF0000;stroke-linejoin:round;}
	.st3{clip-path:url(#SVGID_00000132782856313405274020000007131537870518572694_);}
	.st4{fill:#008000;stroke:#008000;stroke-linejoin:round;}
	.st5{clip-path:url(#SVGID_00000173157134475350929710000010921162126120542394_);}
	.st6{fill:#0000FF;stroke:#0000FF;stroke-linejoin:round;}
	.st7{stroke:#000000;stroke-width:0.8;stroke-linejoin:round;}
	.st8{fill:none;stroke:#000000;stroke-width:0.8;stroke-linecap:square;}
	.st9{opacity:0.8;fill:#FFFFFF;stroke:#000000;enable-background:new    ;}
	.st10{font-family:'ArialMT';}
	.st11{font-size:12px;}
	.st12{font-size:14px;}
	.st13{font-size:18px;}
	.st14{fill:#FFA500;}
</style>
<g id="patch_2">
	<path class="st0" d="M57.6,307.6h357.1V41.5H57.6V307.6z"/>
</g>
<g id="PathCollection_1">
	<g>
		<defs>
			<rect id="SVGID_1_" x="57.6" y="41.5" width="357.1" height="266.1"/>
		</defs>
		<clipPath id="SVGID_00000067921792034924564470000005333608971662429371_">
			<use xlink:href="#SVGID_1_"  style="overflow:visible;"/>
		</clipPath>
		<g style="clip-path:url(#SVGID_00000067921792034924564470000005333608971662429371_);">
			<g>
				<path id="m4bd4373b22" class="st2" d="M225.1,288.7c0.7,0,1.4-0.3,1.9-0.8c0.5-0.5,0.8-1.2,0.8-1.9c0-0.7-0.3-1.4-0.8-1.9
					c-0.5-0.5-1.2-0.8-1.9-0.8s-1.4,0.3-1.9,0.8c-0.5,0.5-0.8,1.2-0.8,1.9c0,0.7,0.3,1.4,0.8,1.9
					C223.7,288.4,224.4,288.7,225.1,288.7z"/>
			</g>
			<g>
				<path id="m4bd4373b22_00000047759062300636472860000014771344825842070415_" class="st2" d="M73.8,107.9c0.7,0,1.4-0.3,1.9-0.8
					s0.8-1.2,0.8-1.9s-0.3-1.4-0.8-1.9s-1.2-0.8-1.9-0.8s-1.4,0.3-1.9,0.8s-0.8,1.2-0.8,1.9s0.3,1.4,0.8,1.9S73.1,107.9,73.8,107.9z
					"/>
			</g>
			<g>
				<path id="m4bd4373b22_00000092442843408028685030000013563353403983953826_" class="st2" d="M73.8,107.9c0.7,0,1.4-0.3,1.9-0.8
					s0.8-1.2,0.8-1.9s-0.3-1.4-0.8-1.9s-1.2-0.8-1.9-0.8s-1.4,0.3-1.9,0.8s-0.8,1.2-0.8,1.9s0.3,1.4,0.8,1.9S73.1,107.9,73.8,107.9z
					"/>
			</g>
			<g>
				<path id="m4bd4373b22_00000163752774545006284550000001981606402761144475_" class="st2" d="M226.1,284.9c0.7,0,1.4-0.3,1.9-0.8
					c0.5-0.5,0.8-1.2,0.8-1.9c0-0.7-0.3-1.4-0.8-1.9c-0.5-0.5-1.2-0.8-1.9-0.8s-1.4,0.3-1.9,0.8c-0.5,0.5-0.8,1.2-0.8,1.9
					c0,0.7,0.3,1.4,0.8,1.9C224.7,284.6,225.4,284.9,226.1,284.9z"/>
			</g>
			<g>
				<path id="m4bd4373b22_00000143607461045343601730000011458140122752508317_" class="st2" d="M230.1,255.8c0.7,0,1.4-0.3,1.9-0.8
					s0.8-1.2,0.8-1.9s-0.3-1.4-0.8-1.9s-1.2-0.8-1.9-0.8s-1.4,0.3-1.9,0.8s-0.8,1.2-0.8,1.9s0.3,1.4,0.8,1.9
					S229.4,255.8,230.1,255.8z"/>
			</g>
			<g>
				<path id="m4bd4373b22_00000112603493876092680080000002261895876697221533_" class="st2" d="M227.7,286.7c0.7,0,1.4-0.3,1.9-0.8
					c0.5-0.5,0.8-1.2,0.8-1.9c0-0.7-0.3-1.4-0.8-1.9c-0.5-0.5-1.2-0.8-1.9-0.8s-1.4,0.3-1.9,0.8c-0.5,0.5-0.8,1.2-0.8,1.9
					c0,0.7,0.3,1.4,0.8,1.9C226.3,286.4,226.9,286.7,227.7,286.7z"/>
			</g>
			<g>
				<path id="m4bd4373b22_00000183945934726108144140000004226511327612339878_" class="st2" d="M242.1,253c0.7,0,1.4-0.3,1.9-0.8
					s0.8-1.2,0.8-1.9s-0.3-1.4-0.8-1.9s-1.2-0.8-1.9-0.8s-1.4,0.3-1.9,0.8s-0.8,1.2-0.8,1.9s0.3,1.4,0.8,1.9S241.4,253,242.1,253z"
					/>
			</g>
			<g>
				<path id="m4bd4373b22_00000125569056358550165590000011434671045021124277_" class="st2" d="M224.6,286.8c0.7,0,1.4-0.3,1.9-0.8
					c0.5-0.5,0.8-1.2,0.8-1.9c0-0.7-0.3-1.4-0.8-1.9c-0.5-0.5-1.2-0.8-1.9-0.8s-1.4,0.3-1.9,0.8c-0.5,0.5-0.8,1.2-0.8,1.9
					c0,0.7,0.3,1.4,0.8,1.9C223.2,286.6,223.9,286.8,224.6,286.8z"/>
			</g>
			<g>
				<path id="m4bd4373b22_00000141449961616427531340000008929123888634150019_" class="st2" d="M236.4,236c0.7,0,1.4-0.3,1.9-0.8
					s0.8-1.2,0.8-1.9s-0.3-1.4-0.8-1.9s-1.2-0.8-1.9-0.8s-1.4,0.3-1.9,0.8s-0.8,1.2-0.8,1.9s0.3,1.4,0.8,1.9S235.7,236,236.4,236z"
					/>
			</g>
			<g>
				<path id="m4bd4373b22_00000183225578461105939410000010526603035919783583_" class="st2" d="M227.4,288.8c0.7,0,1.4-0.3,1.9-0.8
					c0.5-0.5,0.8-1.2,0.8-1.9c0-0.7-0.3-1.4-0.8-1.9c-0.5-0.5-1.2-0.8-1.9-0.8s-1.4,0.3-1.9,0.8c-0.5,0.5-0.8,1.2-0.8,1.9
					c0,0.7,0.3,1.4,0.8,1.9C225.9,288.5,226.6,288.8,227.4,288.8z"/>
			</g>
			<g>
				<path id="m4bd4373b22_00000120527054530996832400000012326875411362923927_" class="st2" d="M230.7,270.9c0.7,0,1.4-0.3,1.9-0.8
					c0.5-0.5,0.8-1.2,0.8-1.9c0-0.7-0.3-1.4-0.8-1.9c-0.5-0.5-1.2-0.8-1.9-0.8s-1.4,0.3-1.9,0.8c-0.5,0.5-0.8,1.2-0.8,1.9
					c0,0.7,0.3,1.4,0.8,1.9C229.3,270.6,230,270.9,230.7,270.9z"/>
			</g>
			<g>
				<path id="m4bd4373b22_00000151522985145885949700000010201743687549348486_" class="st2" d="M229,298.2c0.7,0,1.4-0.3,1.9-0.8
					c0.5-0.5,0.8-1.2,0.8-1.9c0-0.7-0.3-1.4-0.8-1.9c-0.5-0.5-1.2-0.8-1.9-0.8s-1.4,0.3-1.9,0.8c-0.5,0.5-0.8,1.2-0.8,1.9
					c0,0.7,0.3,1.4,0.8,1.9C227.5,297.9,228.2,298.2,229,298.2z"/>
			</g>
			<g>
				<path id="m4bd4373b22_00000128468145259463367810000016950533411588774538_" class="st2" d="M231.6,282.1c0.7,0,1.4-0.3,1.9-0.8
					c0.5-0.5,0.8-1.2,0.8-1.9c0-0.7-0.3-1.4-0.8-1.9c-0.5-0.5-1.2-0.8-1.9-0.8s-1.4,0.3-1.9,0.8c-0.5,0.5-0.8,1.2-0.8,1.9
					c0,0.7,0.3,1.4,0.8,1.9C230.2,281.8,230.9,282.1,231.6,282.1z"/>
			</g>
			<g>
				<path id="m4bd4373b22_00000153681469779872486930000016260493347496646568_" class="st2" d="M237.6,252.3c0.7,0,1.4-0.3,1.9-0.8
					s0.8-1.2,0.8-1.9s-0.3-1.4-0.8-1.9s-1.2-0.8-1.9-0.8s-1.4,0.3-1.9,0.8s-0.8,1.2-0.8,1.9s0.3,1.4,0.8,1.9
					S236.9,252.3,237.6,252.3z"/>
			</g>
			<g>
				<path id="m4bd4373b22_00000138562427795560609830000001360264876702628751_" class="st2" d="M220.8,296.8c0.7,0,1.4-0.3,1.9-0.8
					c0.5-0.5,0.8-1.2,0.8-1.9c0-0.7-0.3-1.4-0.8-1.9c-0.5-0.5-1.2-0.8-1.9-0.8s-1.4,0.3-1.9,0.8c-0.5,0.5-0.8,1.2-0.8,1.9
					c0,0.7,0.3,1.4,0.8,1.9C219.4,296.5,220.1,296.8,220.8,296.8z"/>
			</g>
			<g>
				<path id="m4bd4373b22_00000051364857172420038000000017866724763797253269_" class="st2" d="M248.8,252.5c0.7,0,1.4-0.3,1.9-0.8
					s0.8-1.2,0.8-1.9s-0.3-1.4-0.8-1.9s-1.2-0.8-1.9-0.8s-1.4,0.3-1.9,0.8s-0.8,1.2-0.8,1.9s0.3,1.4,0.8,1.9
					S248.1,252.5,248.8,252.5z"/>
			</g>
			<g>
				<path id="m4bd4373b22_00000146490130200424808840000002762856940890170808_" class="st2" d="M218.4,280.8c0.7,0,1.4-0.3,1.9-0.8
					c0.5-0.5,0.8-1.2,0.8-1.9c0-0.7-0.3-1.4-0.8-1.9c-0.5-0.5-1.2-0.8-1.9-0.8s-1.4,0.3-1.9,0.8c-0.5,0.5-0.8,1.2-0.8,1.9
					c0,0.7,0.3,1.4,0.8,1.9C217,280.5,217.7,280.8,218.4,280.8z"/>
			</g>
			<g>
				<path id="m4bd4373b22_00000178183177164171484530000016528546484040335266_" class="st2" d="M214.8,289.9c0.7,0,1.4-0.3,1.9-0.8
					c0.5-0.5,0.8-1.2,0.8-1.9c0-0.7-0.3-1.4-0.8-1.9c-0.5-0.5-1.2-0.8-1.9-0.8s-1.4,0.3-1.9,0.8c-0.5,0.5-0.8,1.2-0.8,1.9
					c0,0.7,0.3,1.4,0.8,1.9C213.3,289.6,214,289.9,214.8,289.9z"/>
			</g>
			<g>
				<path id="m4bd4373b22_00000078748602114264346220000016357789730897750934_" class="st2" d="M230.1,254.4c0.7,0,1.4-0.3,1.9-0.8
					s0.8-1.2,0.8-1.9s-0.3-1.4-0.8-1.9s-1.2-0.8-1.9-0.8s-1.4,0.3-1.9,0.8s-0.8,1.2-0.8,1.9s0.3,1.4,0.8,1.9
					S229.3,254.4,230.1,254.4z"/>
			</g>
			<g>
				<path id="m4bd4373b22_00000148658582390401375970000008740596951195066538_" class="st2" d="M225.4,279.7c0.7,0,1.4-0.3,1.9-0.8
					c0.5-0.5,0.8-1.2,0.8-1.9c0-0.7-0.3-1.4-0.8-1.9c-0.5-0.5-1.2-0.8-1.9-0.8s-1.4,0.3-1.9,0.8c-0.5,0.5-0.8,1.2-0.8,1.9
					c0,0.7,0.3,1.4,0.8,1.9C223.9,279.4,224.6,279.7,225.4,279.7z"/>
			</g>
			<g>
				<path id="m4bd4373b22_00000173874181062762002120000005788423381405894296_" class="st2" d="M237.6,285.6c0.7,0,1.4-0.3,1.9-0.8
					c0.5-0.5,0.8-1.2,0.8-1.9c0-0.7-0.3-1.4-0.8-1.9c-0.5-0.5-1.2-0.8-1.9-0.8s-1.4,0.3-1.9,0.8c-0.5,0.5-0.8,1.2-0.8,1.9
					c0,0.7,0.3,1.4,0.8,1.9C236.1,285.3,236.8,285.6,237.6,285.6z"/>
			</g>
			<g>
				<path id="m4bd4373b22_00000163759430264235410750000001659435081015751299_" class="st2" d="M227.5,292.9c0.7,0,1.4-0.3,1.9-0.8
					c0.5-0.5,0.8-1.2,0.8-1.9c0-0.7-0.3-1.4-0.8-1.9c-0.5-0.5-1.2-0.8-1.9-0.8s-1.4,0.3-1.9,0.8c-0.5,0.5-0.8,1.2-0.8,1.9
					c0,0.7,0.3,1.4,0.8,1.9C226.1,292.6,226.8,292.9,227.5,292.9z"/>
			</g>
			<g>
				<path id="m4bd4373b22_00000146471068669838755760000016413406415330660224_" class="st2" d="M228.7,255.2c0.7,0,1.4-0.3,1.9-0.8
					s0.8-1.2,0.8-1.9s-0.3-1.4-0.8-1.9s-1.2-0.8-1.9-0.8s-1.4,0.3-1.9,0.8s-0.8,1.2-0.8,1.9s0.3,1.4,0.8,1.9S228,255.2,228.7,255.2z
					"/>
			</g>
			<g>
				<path id="m4bd4373b22_00000005254543607228486140000018011163709371478920_" class="st2" d="M219.7,286c0.7,0,1.4-0.3,1.9-0.8
					c0.5-0.5,0.8-1.2,0.8-1.9c0-0.7-0.3-1.4-0.8-1.9c-0.5-0.5-1.2-0.8-1.9-0.8s-1.4,0.3-1.9,0.8c-0.5,0.5-0.8,1.2-0.8,1.9
					c0,0.7,0.3,1.4,0.8,1.9C218.3,285.8,219,286,219.7,286z"/>
			</g>
			<g>
				<path id="m4bd4373b22_00000073690428873819843560000004407183222203709585_" class="st2" d="M248.8,252.5c0.7,0,1.4-0.3,1.9-0.8
					s0.8-1.2,0.8-1.9s-0.3-1.4-0.8-1.9s-1.2-0.8-1.9-0.8s-1.4,0.3-1.9,0.8s-0.8,1.2-0.8,1.9s0.3,1.4,0.8,1.9
					S248.1,252.5,248.8,252.5z"/>
			</g>
			<g>
				<path id="m4bd4373b22_00000180364085560208581460000012807868283144132274_" class="st2" d="M221.5,291.3c0.7,0,1.4-0.3,1.9-0.8
					c0.5-0.5,0.8-1.2,0.8-1.9c0-0.7-0.3-1.4-0.8-1.9c-0.5-0.5-1.2-0.8-1.9-0.8s-1.4,0.3-1.9,0.8c-0.5,0.5-0.8,1.2-0.8,1.9
					c0,0.7,0.3,1.4,0.8,1.9C220,291.1,220.7,291.3,221.5,291.3z"/>
			</g>
			<g>
				<path id="m4bd4373b22_00000065761455044439791370000009206526255857978809_" class="st2" d="M321.8,154.3c0.7,0,1.4-0.3,1.9-0.8
					s0.8-1.2,0.8-1.9s-0.3-1.4-0.8-1.9s-1.2-0.8-1.9-0.8s-1.4,0.3-1.9,0.8s-0.8,1.2-0.8,1.9s0.3,1.4,0.8,1.9
					S321.1,154.3,321.8,154.3z"/>
			</g>
			<g>
				<path id="m4bd4373b22_00000063633152096354248600000013757747809195221915_" class="st2" d="M236.4,236c0.7,0,1.4-0.3,1.9-0.8
					s0.8-1.2,0.8-1.9s-0.3-1.4-0.8-1.9s-1.2-0.8-1.9-0.8s-1.4,0.3-1.9,0.8s-0.8,1.2-0.8,1.9s0.3,1.4,0.8,1.9S235.7,236,236.4,236z"
					/>
			</g>
			<g>
				<path id="m4bd4373b22_00000073717344307271115700000008326215823343815321_" class="st2" d="M232.2,288.4c0.7,0,1.4-0.3,1.9-0.8
					c0.5-0.5,0.8-1.2,0.8-1.9c0-0.7-0.3-1.4-0.8-1.9c-0.5-0.5-1.2-0.8-1.9-0.8s-1.4,0.3-1.9,0.8c-0.5,0.5-0.8,1.2-0.8,1.9
					c0,0.7,0.3,1.4,0.8,1.9C230.8,288.1,231.5,288.4,232.2,288.4z"/>
			</g>
			<g>
				<path id="m4bd4373b22_00000139998874715505806910000000819398682061630388_" class="st2" d="M234.8,293.4c0.7,0,1.4-0.3,1.9-0.8
					c0.5-0.5,0.8-1.2,0.8-1.9c0-0.7-0.3-1.4-0.8-1.9c-0.5-0.5-1.2-0.8-1.9-0.8s-1.4,0.3-1.9,0.8c-0.5,0.5-0.8,1.2-0.8,1.9
					c0,0.7,0.3,1.4,0.8,1.9C233.3,293.1,234,293.4,234.8,293.4z"/>
			</g>
		</g>
	</g>
</g>
<g id="PathCollection_2">
	<g>
		<defs>
			<rect id="SVGID_00000154421714131312812130000005331503014193441942_" x="57.6" y="41.5" width="357.1" height="266.1"/>
		</defs>
		<clipPath id="SVGID_00000043439725432579468590000015108061626099065519_">
			<use xlink:href="#SVGID_00000154421714131312812130000005331503014193441942_"  style="overflow:visible;"/>
		</clipPath>
		<g style="clip-path:url(#SVGID_00000043439725432579468590000015108061626099065519_);">
			<g>
				<path id="m1801419b2b" class="st4" d="M328.6,151.8c0.7,0,1.4-0.3,1.9-0.8s0.8-1.2,0.8-1.9s-0.3-1.4-0.8-1.9s-1.2-0.8-1.9-0.8
					s-1.4,0.3-1.9,0.8s-0.8,1.2-0.8,1.9s0.3,1.4,0.8,1.9S327.8,151.8,328.6,151.8z"/>
			</g>
			<g>
				<path id="m1801419b2b_00000052075787165138141900000000276966656666513836_" class="st4" d="M330.4,150.8c0.7,0,1.4-0.3,1.9-0.8
					s0.8-1.2,0.8-1.9s-0.3-1.4-0.8-1.9s-1.2-0.8-1.9-0.8s-1.4,0.3-1.9,0.8s-0.8,1.2-0.8,1.9s0.3,1.4,0.8,1.9
					S329.7,150.8,330.4,150.8z"/>
			</g>
			<g>
				<path id="m1801419b2b_00000057838227087163735990000003868609902476830877_" class="st4" d="M326,151.5c0.7,0,1.4-0.3,1.9-0.8
					s0.8-1.2,0.8-1.9s-0.3-1.4-0.8-1.9s-1.2-0.8-1.9-0.8s-1.4,0.3-1.9,0.8s-0.8,1.2-0.8,1.9s0.3,1.4,0.8,1.9S325.3,151.5,326,151.5z
					"/>
			</g>
			<g>
				<path id="m1801419b2b_00000042008209804259052290000008285136626684223646_" class="st4" d="M327.5,149.4c0.7,0,1.4-0.3,1.9-0.8
					s0.8-1.2,0.8-1.9s-0.3-1.4-0.8-1.9s-1.2-0.8-1.9-0.8s-1.4,0.3-1.9,0.8s-0.8,1.2-0.8,1.9s0.3,1.4,0.8,1.9
					S326.8,149.4,327.5,149.4z"/>
			</g>
			<g>
				<path id="m1801419b2b_00000046307446491081763410000014376377126306607806_" class="st4" d="M329.9,148.8c0.7,0,1.4-0.3,1.9-0.8
					s0.8-1.2,0.8-1.9s-0.3-1.4-0.8-1.9s-1.2-0.8-1.9-0.8s-1.4,0.3-1.9,0.8s-0.8,1.2-0.8,1.9s0.3,1.4,0.8,1.9
					S329.1,148.8,329.9,148.8z"/>
			</g>
			<g>
				<path id="m1801419b2b_00000135680829800794271180000008529061727090856081_" class="st4" d="M320.5,148.5c0.7,0,1.4-0.3,1.9-0.8
					s0.8-1.2,0.8-1.9s-0.3-1.4-0.8-1.9s-1.2-0.8-1.9-0.8s-1.4,0.3-1.9,0.8s-0.8,1.2-0.8,1.9s0.3,1.4,0.8,1.9
					S319.8,148.5,320.5,148.5z"/>
			</g>
			<g>
				<path id="m1801419b2b_00000034048609934587481460000002711191774592509115_" class="st4" d="M325.9,159.2c0.7,0,1.4-0.3,1.9-0.8
					s0.8-1.2,0.8-1.9s-0.3-1.4-0.8-1.9s-1.2-0.8-1.9-0.8s-1.4,0.3-1.9,0.8s-0.8,1.2-0.8,1.9s0.3,1.4,0.8,1.9
					S325.2,159.2,325.9,159.2z"/>
			</g>
			<g>
				<path id="m1801419b2b_00000030475643710701595910000008207125349829413001_" class="st4" d="M330.8,156c0.7,0,1.4-0.3,1.9-0.8
					s0.8-1.2,0.8-1.9s-0.3-1.4-0.8-1.9s-1.2-0.8-1.9-0.8s-1.4,0.3-1.9,0.8s-0.8,1.2-0.8,1.9s0.3,1.4,0.8,1.9S330.1,156,330.8,156z"
					/>
			</g>
			<g>
				<path id="m1801419b2b_00000124868650895663595480000017420367208894646447_" class="st4" d="M327.3,145c0.7,0,1.4-0.3,1.9-0.8
					s0.8-1.2,0.8-1.9s-0.3-1.4-0.8-1.9s-1.2-0.8-1.9-0.8s-1.4,0.3-1.9,0.8s-0.8,1.2-0.8,1.9s0.3,1.4,0.8,1.9S326.5,145,327.3,145z"
					/>
			</g>
			<g>
				<path id="m1801419b2b_00000020396180230351586500000000501738081470618019_" class="st4" d="M337.1,157.2c0.7,0,1.4-0.3,1.9-0.8
					s0.8-1.2,0.8-1.9s-0.3-1.4-0.8-1.9s-1.2-0.8-1.9-0.8s-1.4,0.3-1.9,0.8s-0.8,1.2-0.8,1.9s0.3,1.4,0.8,1.9
					S336.4,157.2,337.1,157.2z"/>
			</g>
			<g>
				<path id="m1801419b2b_00000124147014170002188300000005580799193806256784_" class="st4" d="M322,142.4c0.7,0,1.4-0.3,1.9-0.8
					s0.8-1.2,0.8-1.9s-0.3-1.4-0.8-1.9s-1.2-0.8-1.9-0.8s-1.4,0.3-1.9,0.8s-0.8,1.2-0.8,1.9s0.3,1.4,0.8,1.9S321.3,142.4,322,142.4z
					"/>
			</g>
			<g>
				<path id="m1801419b2b_00000023248814945676170160000005791131775783035320_" class="st4" d="M335.1,151.7c0.7,0,1.4-0.3,1.9-0.8
					s0.8-1.2,0.8-1.9s-0.3-1.4-0.8-1.9s-1.2-0.8-1.9-0.8s-1.4,0.3-1.9,0.8s-0.8,1.2-0.8,1.9s0.3,1.4,0.8,1.9
					S334.4,151.7,335.1,151.7z"/>
			</g>
			<g>
				<path id="m1801419b2b_00000088131743112285555300000004246661391596740020_" class="st4" d="M270.9,56.3c0.7,0,1.4-0.3,1.9-0.8
					c0.5-0.5,0.8-1.2,0.8-1.9s-0.3-1.4-0.8-1.9c-0.5-0.5-1.2-0.8-1.9-0.8s-1.4,0.3-1.9,0.8c-0.5,0.5-0.8,1.2-0.8,1.9
					s0.3,1.4,0.8,1.9C269.5,56,270.2,56.3,270.9,56.3z"/>
			</g>
			<g>
				<path id="m1801419b2b_00000174573844575810955890000001441074352846784151_" class="st4" d="M270.9,56.3c0.7,0,1.4-0.3,1.9-0.8
					c0.5-0.5,0.8-1.2,0.8-1.9s-0.3-1.4-0.8-1.9c-0.5-0.5-1.2-0.8-1.9-0.8s-1.4,0.3-1.9,0.8c-0.5,0.5-0.8,1.2-0.8,1.9
					s0.3,1.4,0.8,1.9C269.5,56,270.2,56.3,270.9,56.3z"/>
			</g>
			<g>
				<path id="m1801419b2b_00000025427900599084472160000010713991257426718908_" class="st4" d="M331.8,140.7c0.7,0,1.4-0.3,1.9-0.8
					s0.8-1.2,0.8-1.9s-0.3-1.4-0.8-1.9s-1.2-0.8-1.9-0.8s-1.4,0.3-1.9,0.8s-0.8,1.2-0.8,1.9s0.3,1.4,0.8,1.9
					S331.1,140.7,331.8,140.7z"/>
			</g>
			<g>
				<path id="m1801419b2b_00000008141400401130178920000015076571514933035674_" class="st4" d="M339.8,147.7c0.7,0,1.4-0.3,1.9-0.8
					s0.8-1.2,0.8-1.9s-0.3-1.4-0.8-1.9s-1.2-0.8-1.9-0.8s-1.4,0.3-1.9,0.8s-0.8,1.2-0.8,1.9s0.3,1.4,0.8,1.9
					S339.1,147.7,339.8,147.7z"/>
			</g>
			<g>
				<path id="m1801419b2b_00000003814026874284668850000016066173842437928354_" class="st4" d="M333.7,146.1c0.7,0,1.4-0.3,1.9-0.8
					s0.8-1.2,0.8-1.9s-0.3-1.4-0.8-1.9s-1.2-0.8-1.9-0.8s-1.4,0.3-1.9,0.8s-0.8,1.2-0.8,1.9s0.3,1.4,0.8,1.9
					S332.9,146.1,333.7,146.1z"/>
			</g>
		</g>
	</g>
</g>
<g id="PathCollection_3">
	<g>
		<defs>
			<rect id="SVGID_00000026155260568734843960000004743583353804855732_" x="57.6" y="41.5" width="357.1" height="266.1"/>
		</defs>
		<clipPath id="SVGID_00000125587302838565057390000006971119453156819624_">
			<use xlink:href="#SVGID_00000026155260568734843960000004743583353804855732_"  style="overflow:visible;"/>
		</clipPath>
		<g style="clip-path:url(#SVGID_00000125587302838565057390000006971119453156819624_);">
			<g>
				<path id="mceb3e8d1cc" class="st6" d="M172.7,126.6c0.7,0,1.4-0.3,1.9-0.8s0.8-1.2,0.8-1.9s-0.3-1.4-0.8-1.9s-1.2-0.8-1.9-0.8
					s-1.4,0.3-1.9,0.8s-0.8,1.2-0.8,1.9s0.3,1.4,0.8,1.9S172,126.6,172.7,126.6z"/>
			</g>
			<g>
				<path id="mceb3e8d1cc_00000099627741543747223880000005708288248203954056_" class="st6" d="M398.5,242.4c0.7,0,1.4-0.3,1.9-0.8
					s0.8-1.2,0.8-1.9s-0.3-1.4-0.8-1.9s-1.2-0.8-1.9-0.8s-1.4,0.3-1.9,0.8s-0.8,1.2-0.8,1.9s0.3,1.4,0.8,1.9
					S397.8,242.4,398.5,242.4z"/>
			</g>
			<g>
				<path id="mceb3e8d1cc_00000033361406021064994600000001196246724795924647_" class="st6" d="M177.2,127.5c0.7,0,1.4-0.3,1.9-0.8
					s0.8-1.2,0.8-1.9s-0.3-1.4-0.8-1.9s-1.2-0.8-1.9-0.8s-1.4,0.3-1.9,0.8s-0.8,1.2-0.8,1.9s0.3,1.4,0.8,1.9
					S176.4,127.5,177.2,127.5z"/>
			</g>
			<g>
				<path id="mceb3e8d1cc_00000130624445888025074110000007269164597912942260_" class="st6" d="M174.9,126.3c0.7,0,1.4-0.3,1.9-0.8
					s0.8-1.2,0.8-1.9s-0.3-1.4-0.8-1.9s-1.2-0.8-1.9-0.8s-1.4,0.3-1.9,0.8s-0.8,1.2-0.8,1.9s0.3,1.4,0.8,1.9
					S174.1,126.3,174.9,126.3z"/>
			</g>
			<g>
				<path id="mceb3e8d1cc_00000086654796803952036990000010907909861709598870_" class="st6" d="M174.8,128.8c0.7,0,1.4-0.3,1.9-0.8
					s0.8-1.2,0.8-1.9s-0.3-1.4-0.8-1.9s-1.2-0.8-1.9-0.8s-1.4,0.3-1.9,0.8s-0.8,1.2-0.8,1.9s0.3,1.4,0.8,1.9
					S174.1,128.8,174.8,128.8z"/>
			</g>
			<g>
				<path id="mceb3e8d1cc_00000000193980091636079250000011480948728530329745_" class="st6" d="M172.4,128.7c0.7,0,1.4-0.3,1.9-0.8
					s0.8-1.2,0.8-1.9s-0.3-1.4-0.8-1.9s-1.2-0.8-1.9-0.8s-1.4,0.3-1.9,0.8s-0.8,1.2-0.8,1.9s0.3,1.4,0.8,1.9
					S171.7,128.7,172.4,128.7z"/>
			</g>
			<g>
				<path id="mceb3e8d1cc_00000169534678525830942960000005476640611222826137_" class="st6" d="M169.9,137.7c0.7,0,1.4-0.3,1.9-0.8
					s0.8-1.2,0.8-1.9s-0.3-1.4-0.8-1.9s-1.2-0.8-1.9-0.8s-1.4,0.3-1.9,0.8s-0.8,1.2-0.8,1.9s0.3,1.4,0.8,1.9
					S169.2,137.7,169.9,137.7z"/>
			</g>
			<g>
				<path id="mceb3e8d1cc_00000172426602502169327500000009106921850071980472_" class="st6" d="M176.1,121.7c0.7,0,1.4-0.3,1.9-0.8
					s0.8-1.2,0.8-1.9s-0.3-1.4-0.8-1.9s-1.2-0.8-1.9-0.8s-1.4,0.3-1.9,0.8s-0.8,1.2-0.8,1.9s0.3,1.4,0.8,1.9
					S175.4,121.7,176.1,121.7z"/>
			</g>
			<g>
				<path id="mceb3e8d1cc_00000067229627233726761460000018282683541270353564_" class="st6" d="M396.3,242.3c0.7,0,1.4-0.3,1.9-0.8
					s0.8-1.2,0.8-1.9s-0.3-1.4-0.8-1.9s-1.2-0.8-1.9-0.8s-1.4,0.3-1.9,0.8s-0.8,1.2-0.8,1.9s0.3,1.4,0.8,1.9
					S395.6,242.3,396.3,242.3z"/>
			</g>
			<g>
				<path id="mceb3e8d1cc_00000080207064627343309530000013499900894019648669_" class="st6" d="M169.6,132.1c0.7,0,1.4-0.3,1.9-0.8
					s0.8-1.2,0.8-1.9s-0.3-1.4-0.8-1.9s-1.2-0.8-1.9-0.8s-1.4,0.3-1.9,0.8s-0.8,1.2-0.8,1.9s0.3,1.4,0.8,1.9
					S168.8,132.1,169.6,132.1z"/>
			</g>
			<g>
				<path id="mceb3e8d1cc_00000138564403479878442100000011460540719651065535_" class="st6" d="M163.5,122.4c0.7,0,1.4-0.3,1.9-0.8
					s0.8-1.2,0.8-1.9s-0.3-1.4-0.8-1.9s-1.2-0.8-1.9-0.8s-1.4,0.3-1.9,0.8s-0.8,1.2-0.8,1.9s0.3,1.4,0.8,1.9
					S162.7,122.4,163.5,122.4z"/>
			</g>
			<g>
				<path id="mceb3e8d1cc_00000112601784178473407420000008506538044550667152_" class="st6" d="M171.8,116.9c0.7,0,1.4-0.3,1.9-0.8
					s0.8-1.2,0.8-1.9s-0.3-1.4-0.8-1.9s-1.2-0.8-1.9-0.8s-1.4,0.3-1.9,0.8s-0.8,1.2-0.8,1.9s0.3,1.4,0.8,1.9S171,116.9,171.8,116.9z
					"/>
			</g>
			<g>
				<path id="mceb3e8d1cc_00000013174236393061319110000013898009816524435643_" class="st6" d="M179.1,137.6c0.7,0,1.4-0.3,1.9-0.8
					s0.8-1.2,0.8-1.9s-0.3-1.4-0.8-1.9s-1.2-0.8-1.9-0.8s-1.4,0.3-1.9,0.8s-0.8,1.2-0.8,1.9s0.3,1.4,0.8,1.9
					S178.4,137.6,179.1,137.6z"/>
			</g>
			<g>
				<path id="mceb3e8d1cc_00000000201187812395656420000004068331357683249308_" class="st6" d="M182.8,131.6c0.7,0,1.4-0.3,1.9-0.8
					s0.8-1.2,0.8-1.9s-0.3-1.4-0.8-1.9s-1.2-0.8-1.9-0.8s-1.4,0.3-1.9,0.8s-0.8,1.2-0.8,1.9s0.3,1.4,0.8,1.9
					S182.1,131.6,182.8,131.6z"/>
			</g>
			<g>
				<path id="mceb3e8d1cc_00000089543014458427045880000003290335316088987529_" class="st6" d="M398.3,244.4c0.7,0,1.4-0.3,1.9-0.8
					s0.8-1.2,0.8-1.9s-0.3-1.4-0.8-1.9s-1.2-0.8-1.9-0.8s-1.4,0.3-1.9,0.8s-0.8,1.2-0.8,1.9s0.3,1.4,0.8,1.9
					S397.6,244.4,398.3,244.4z"/>
			</g>
			<g>
				<path id="mceb3e8d1cc_00000043446108504397599830000016494084583142601877_" class="st6" d="M181.8,126c0.7,0,1.4-0.3,1.9-0.8
					s0.8-1.2,0.8-1.9s-0.3-1.4-0.8-1.9s-1.2-0.8-1.9-0.8s-1.4,0.3-1.9,0.8s-0.8,1.2-0.8,1.9s0.3,1.4,0.8,1.9S181.1,126,181.8,126z"
					/>
			</g>
			<g>
				<path id="mceb3e8d1cc_00000135687723368835563960000003698353802973669301_" class="st6" d="M170.3,122.7c0.7,0,1.4-0.3,1.9-0.8
					s0.8-1.2,0.8-1.9s-0.3-1.4-0.8-1.9s-1.2-0.8-1.9-0.8s-1.4,0.3-1.9,0.8s-0.8,1.2-0.8,1.9s0.3,1.4,0.8,1.9
					S169.5,122.7,170.3,122.7z"/>
			</g>
			<g>
				<path id="mceb3e8d1cc_00000027595547806180965930000014896438302786608269_" class="st6" d="M167.4,127.2c0.7,0,1.4-0.3,1.9-0.8
					s0.8-1.2,0.8-1.9s-0.3-1.4-0.8-1.9s-1.2-0.8-1.9-0.8s-1.4,0.3-1.9,0.8s-0.8,1.2-0.8,1.9s0.3,1.4,0.8,1.9
					S166.7,127.2,167.4,127.2z"/>
			</g>
			<g>
				<path id="mceb3e8d1cc_00000088835748715874251980000008320249447321977001_" class="st6" d="M182.2,119.8c0.7,0,1.4-0.3,1.9-0.8
					s0.8-1.2,0.8-1.9s-0.3-1.4-0.8-1.9s-1.2-0.8-1.9-0.8s-1.4,0.3-1.9,0.8s-0.8,1.2-0.8,1.9s0.3,1.4,0.8,1.9
					S181.5,119.8,182.2,119.8z"/>
			</g>
			<g>
				<path id="mceb3e8d1cc_00000005250573364539308530000007301257613648182165_" class="st6" d="M162.8,131.3c0.7,0,1.4-0.3,1.9-0.8
					s0.8-1.2,0.8-1.9s-0.3-1.4-0.8-1.9s-1.2-0.8-1.9-0.8s-1.4,0.3-1.9,0.8s-0.8,1.2-0.8,1.9s0.3,1.4,0.8,1.9S162,131.3,162.8,131.3z
					"/>
			</g>
			<g>
				<path id="mceb3e8d1cc_00000150787705395646400290000006935019534922893195_" class="st6" d="M175.5,133c0.7,0,1.4-0.3,1.9-0.8
					s0.8-1.2,0.8-1.9s-0.3-1.4-0.8-1.9s-1.2-0.8-1.9-0.8s-1.4,0.3-1.9,0.8s-0.8,1.2-0.8,1.9s0.3,1.4,0.8,1.9S174.8,133,175.5,133z"
					/>
			</g>
			<g>
				<path id="mceb3e8d1cc_00000023261375202640313640000000084356403355566762_" class="st6" d="M396.1,244.3c0.7,0,1.4-0.3,1.9-0.8
					s0.8-1.2,0.8-1.9s-0.3-1.4-0.8-1.9s-1.2-0.8-1.9-0.8s-1.4,0.3-1.9,0.8s-0.8,1.2-0.8,1.9s0.3,1.4,0.8,1.9
					S395.4,244.3,396.1,244.3z"/>
			</g>
		</g>
	</g>
</g>
<g id="matplotlib.axis_1">
	<g id="xtick_1">
		<g id="line2d_1">
			<g>
				<g>
					<path id="m5539605c7f_00000078736510890716474360000014942921784662042558_" class="st7" d="M98.8,307.6"/>
				</g>
			</g>
		</g>
	</g>
	<g id="xtick_2">
		<g id="line2d_2">
			<g>
				<g>
					<path id="m5539605c7f_00000070811148398579880480000003006509487920668034_" class="st7" d="M149.7,307.6"/>
				</g>
			</g>
		</g>
	</g>
	<g id="xtick_3">
		<g id="line2d_3">
			<g>
				<g>
					<path id="m5539605c7f_00000074427463417891313500000001751499229764523161_" class="st7" d="M200.6,307.6"/>
				</g>
			</g>
		</g>
	</g>
	<g id="xtick_4">
		<g id="line2d_4">
			<g>
				<g>
					<path id="m5539605c7f_00000016793110867063849570000013076095402024260247_" class="st7" d="M251.5,307.6"/>
				</g>
			</g>
		</g>
	</g>
	<g id="xtick_5">
		<g id="line2d_5">
			<g>
				<g>
					<path id="m5539605c7f_00000047746935540626556640000013850464095031681719_" class="st7" d="M302.4,307.6"/>
				</g>
			</g>
		</g>
	</g>
	<g id="xtick_6">
		<g id="line2d_6">
			<g>
				<g>
					<path id="m5539605c7f_00000072249963439941442970000001530009810928113587_" class="st7" d="M353.3,307.6"/>
				</g>
			</g>
		</g>
	</g>
	<g id="xtick_7">
		<g id="line2d_7">
			<g>
				<g>
					<path id="m5539605c7f_00000075848918410095417450000001721743654700273062_" class="st7" d="M404.3,307.6"/>
				</g>
			</g>
		</g>
	</g>
</g>
<g id="matplotlib.axis_2">
	<g id="ytick_1">
		<g id="line2d_8">
			<g>
				<g>
					<path id="m9febdcb504_00000048491267329645060800000011510133954802521988_" class="st7" d="M57.6,277.2"/>
				</g>
			</g>
		</g>
	</g>
	<g id="ytick_2">
		<g id="line2d_9">
			<g>
				<g>
					<path id="m9febdcb504_00000070822592603739230530000000393024216614111633_" class="st7" d="M57.6,231.4"/>
				</g>
			</g>
		</g>
	</g>
	<g id="ytick_3">
		<g id="line2d_10">
			<g>
				<g>
					<path id="m9febdcb504_00000119103810202117283980000014152647242703197080_" class="st7" d="M57.6,185.6"/>
				</g>
			</g>
		</g>
	</g>
	<g id="ytick_4">
		<g id="line2d_11">
			<g>
				<g>
					<path id="m9febdcb504_00000183250590695556226320000014630032449609370814_" class="st7" d="M57.6,139.9"/>
				</g>
			</g>
		</g>
	</g>
	<g id="ytick_5">
		<g id="line2d_12">
			<g>
				<g>
					<path id="m9febdcb504_00000005258580759723444030000005576049025010504337_" class="st7" d="M57.6,94.1"/>
				</g>
			</g>
		</g>
	</g>
	<g id="ytick_6">
		<g id="line2d_13">
			<g>
				<g>
					<path id="m9febdcb504_00000001630516948514174950000003892562769196394685_" class="st7" d="M57.6,48.3"/>
				</g>
			</g>
		</g>
	</g>
</g>
<g id="patch_3">
	<path class="st8" d="M57.6,307.6V41.5"/>
</g>
<g id="patch_4">
	<path class="st8" d="M468,41.9"/>
	<path class="st8" d="M468,308"/>
</g>
<g id="patch_5">
	<path class="st8" d="M57.6,307.6h357.1"/>
</g>
<g id="patch_6">
	<path class="st8" d="M431,30.1"/>
	<path class="st8" d="M73.9,30.1"/>
</g>
<g id="patch_7">
	<path class="st9" d="M315.4,101.7h94.4c3.3,0,4.9-0.8,4.9-2.4V48.8c0-1.6-1.6-2.4-4.9-2.4h-94.4c-3.3,0-4.9,0.8-4.9,2.4v50.6
		C310.5,101,312.1,101.7,315.4,101.7z"/>
</g>
<g id="PathCollection_4">
	<g>
		<g>
			<path id="m4bd4373b22_00000108294979930727433660000001775489633755280822_" class="st2" d="M320.2,58c0.7,0,1.4-0.3,1.9-0.8
				c0.5-0.5,0.8-1.2,0.8-1.9c0-0.7-0.3-1.4-0.8-1.9c-0.5-0.5-1.2-0.8-1.9-0.8s-1.4,0.3-1.9,0.8c-0.5,0.5-0.8,1.2-0.8,1.9
				c0,0.7,0.3,1.4,0.8,1.9C318.8,57.8,319.5,58,320.2,58z"/>
		</g>
	</g>
</g>
<g id="text_14">
	<text transform="matrix(1 0 0 1 329.3724 59.5325)" class="st10 st11">Slc32a1-/Dlk1-</text>
</g>
<g id="PathCollection_5">
	<g>
		<g>
			<path id="m1801419b2b_00000108278272752180920970000002935271596876770954_" class="st4" d="M320.2,76.1c0.7,0,1.4-0.3,1.9-0.8
				s0.8-1.2,0.8-1.9s-0.3-1.4-0.8-1.9c-0.5-0.5-1.2-0.8-1.9-0.8s-1.4,0.3-1.9,0.8c-0.5,0.5-0.8,1.2-0.8,1.9s0.3,1.4,0.8,1.9
				C318.8,75.8,319.5,76.1,320.2,76.1z"/>
		</g>
	</g>
</g>
<g id="PathCollection_6">
	<g>
		<g>
			<path id="mceb3e8d1cc_00000151544381787969558940000010071035537987615130_" class="st6" d="M320.2,94.1c0.7,0,1.4-0.3,1.9-0.8
				c0.5-0.5,0.8-1.2,0.8-1.9c0-0.7-0.3-1.4-0.8-1.9s-1.2-0.8-1.9-0.8s-1.4,0.3-1.9,0.8c-0.5,0.5-0.8,1.2-0.8,1.9
				c0,0.7,0.3,1.4,0.8,1.9C318.8,93.8,319.5,94.1,320.2,94.1z"/>
		</g>
	</g>
</g>
<text transform="matrix(1 0 0 1 209.3231 327.8705)" class="st10 st12">tSNE_1</text>
<text transform="matrix(1.961531e-08 -1 1 1.961531e-08 46.5052 194.258)" class="st10 st12">tSNE_2</text>
<g id="text_14_00000074401844345343564380000014941320930998095764_">
	<text transform="matrix(1 0 0 1 329.8208 76.8827)" class="st10 st11">Slc32a1+/Dlk1-</text>
</g>
<g id="text_14_00000183230886255537451570000016981611125646566541_">
	<text transform="matrix(1 0 0 1 329.3727 95.0889)" class="st10 st11">Slc32a1-/Dlk1+</text>
</g>
<text transform="matrix(1 0 0 1 44.5195 24.6718)"><tspan x="0" y="0" class="st10 st13">Anterior IRN/PARN → CN XII Phox2b+</tspan><tspan x="311.6" y="0" class="st14 st10 st13"> </tspan><tspan x="316.6" y="0" class="st10 st13">Neurons</tspan></text>
</svg>
